<?xml version="1.0" encoding="UTF-8"?>
<svg width="600" height="400" viewBox="0 0 600 400" fill="none" xmlns="http://www.w3.org/2000/svg">
    <!-- Background Circle -->
    <circle cx="300" cy="200" r="180" fill="url(#gradient)" opacity="0.1"/>
    
    <!-- Order List -->
    <rect x="150" y="120" width="300" height="200" rx="20" fill="white"/>
    <rect x="180" y="150" width="240" height="20" rx="5" fill="#E2E8F0"/>
    <rect x="180" y="180" width="200" height="20" rx="5" fill="#E2E8F0"/>
    <rect x="180" y="210" width="220" height="20" rx="5" fill="#E2E8F0"/>
    <rect x="180" y="240" width="180" height="20" rx="5" fill="#E2E8F0"/>
    
    <!-- Notification Bell -->
    <circle cx="450" cy="150" r="40" fill="#2563EB"/>
    <path d="M450 120 L450 110 L460 110 L460 120" stroke="white" stroke-width="4" stroke-linecap="round"/>
    <path d="M430 150 L470 150" stroke="white" stroke-width="4" stroke-linecap="round"/>
    <path d="M440 150 L440 170 L460 170 L460 150" stroke="white" stroke-width="4" stroke-linecap="round"/>
    
    <!-- Checkmark -->
    <path d="M420 250 L440 270 L480 230" stroke="#22C55E" stroke-width="8" stroke-linecap="round" stroke-linejoin="round"/>
    
    <!-- Decorative Elements -->
    <circle cx="100" cy="100" r="10" fill="#F43F5E" opacity="0.5"/>
    <circle cx="500" cy="300" r="15" fill="#2563EB" opacity="0.5"/>
    <circle cx="150" cy="350" r="8" fill="#22C55E" opacity="0.5"/>
    
    <!-- Gradient Definition -->
    <defs>
        <linearGradient id="gradient" x1="0" y1="0" x2="600" y2="400" gradientUnits="userSpaceOnUse">
            <stop offset="0%" stop-color="#2563EB"/>
            <stop offset="100%" stop-color="#1E40AF"/>
        </linearGradient>
    </defs>
</svg> 